<svg class="w-full h-full" version="1.1" id="Calque_1" xmlns="http://www.w3.org/2000/svg" xmlns:xlink="http://www.w3.org/1999/xlink" x="0px" y="0px"
	 viewBox="0 0 281.4 90.7" style="enable-background:new 0 0 281.4 90.7;" xml:space="preserve">
<style type="text/css">
	.st-kresus-blanc-0{enable-background:new    ;}
	.st-kresus-blanc-1{fill:#FFFFFF;}
</style>
<g id="Calque_2_1_">
	<g id="Footer">
		<g class="st-kresus-blanc-0">
			<path class="st-kresus-blanc-1" d="M59.9,76.1V31.3h9.9v4.4c1.4-2,2.8-3.5,4.2-4.2c1.4-0.8,3.2-1.2,5.4-1.2h0.9v10.4c-6.4,0-9.6,3.5-9.6,10.6
				v24.9H59.9z"/>
			<path class="st-kresus-blanc-1" d="M136.7,58.5H102c0.6,2.7,2.1,4.8,4.2,6.4c2.2,1.6,4.9,2.4,8.1,2.4c2.3,0,4.1-0.3,5.6-1
				c1.5-0.6,2.9-1.8,4.3-3.5H136c-1.3,4.2-4,7.6-8,10.3c-4,2.7-8.4,4-13.4,4c-6.8,0-12.5-2.2-17.2-6.7c-4.7-4.5-7-10-7-16.6
				c0-6.6,2.3-12.2,6.9-16.8c4.6-4.6,10.2-6.9,16.8-6.9c6.7,0,12.2,2.3,16.6,6.8c4.4,4.5,6.6,10.3,6.6,17.3
				C137.1,55.8,137,57.2,136.7,58.5z M101.7,49h24.8c-1.4-5.9-5.5-8.9-12.3-8.9C107.6,40.1,103.4,43.1,101.7,49z"/>
			<path class="st-kresus-blanc-1" d="M147.7,61.9h10.8c0.5,1.9,1.3,3.3,2.2,4.1c0.9,0.9,2.2,1.3,3.8,1.3c1.4,0,2.6-0.4,3.5-1.2
				c0.9-0.8,1.4-1.9,1.4-3.2c0-1.3-0.5-2.4-1.4-3.1c-0.9-0.7-3.3-1.7-7.2-3c-3.9-1.3-6.7-3-8.7-5c-1.9-2-2.9-4.7-2.9-8
				c0-3.8,1.4-7.1,4.3-9.7c2.9-2.6,6.4-4,10.6-4c4.3,0,7.8,1.3,10.6,3.8c2.8,2.5,4.2,5.7,4.2,9.7h-10.5c-0.5-2.4-1.9-3.6-4.2-3.6
				c-1.1,0-2.1,0.4-2.9,1.1c-0.8,0.7-1.2,1.6-1.2,2.7c0,1,0.3,1.8,1,2.4c0.7,0.6,1.9,1.1,3.6,1.7l3,0.9c4.5,1.4,7.7,3.1,9.6,5.1
				c1.9,2,2.8,4.7,2.8,8.1c0,4.3-1.6,7.9-4.7,10.9c-3.1,2.9-6.9,4.4-11.4,4.4c-4.7,0-8.6-1.3-11.4-4
				C149.9,70.6,148.2,66.8,147.7,61.9z"/>
			<path class="st-kresus-blanc-1" d="M232.6,31.3v44.8h-10v-4.3c-2,1.9-4,3.3-5.9,4.1c-1.9,0.8-4.3,1.2-7,1.2c-11.4,0-17.1-7.3-17.1-21.9v-24
				h10.8v21.9c0,5.2,0.6,8.9,1.9,11c1.2,2.1,3.5,3.1,6.6,3.1c3.7,0,6.2-1.1,7.7-3.3c1.5-2.2,2.2-6.1,2.2-11.6V31.3H232.6z"/>
			<path class="st-kresus-blanc-1" d="M244.9,61.9h10.8c0.5,1.9,1.3,3.3,2.2,4.1c0.9,0.9,2.2,1.3,3.8,1.3c1.4,0,2.6-0.4,3.5-1.2
				c0.9-0.8,1.4-1.9,1.4-3.2c0-1.3-0.5-2.4-1.4-3.1c-0.9-0.7-3.3-1.7-7.2-3s-6.7-3-8.7-5c-1.9-2-2.9-4.7-2.9-8
				c0-3.8,1.4-7.1,4.3-9.7c2.9-2.6,6.4-4,10.6-4c4.3,0,7.8,1.3,10.6,3.8c2.8,2.5,4.2,5.7,4.2,9.7h-10.5c-0.5-2.4-1.9-3.6-4.2-3.6
				c-1.1,0-2.1,0.4-2.9,1.1c-0.8,0.7-1.2,1.6-1.2,2.7c0,1,0.3,1.8,1,2.4c0.7,0.6,1.9,1.1,3.6,1.7l3,0.9c4.5,1.4,7.7,3.1,9.6,5.1
				c1.9,2,2.8,4.7,2.8,8.1c0,4.3-1.6,7.9-4.7,10.9c-3.1,2.9-6.9,4.4-11.4,4.4c-4.7,0-8.6-1.3-11.4-4C247,70.6,245.3,66.8,244.9,61.9
				z"/>
		</g>
		<path id="k-haut" class="st-kresus-blanc-1" d="M33.9,26.2L21.3,45.1c-0.3,0.4-0.2,0.9,0.2,1.2c0.1,0.1,0.3,0.1,0.5,0.1h9.8
			c0.3,0,0.5-0.1,0.7-0.4L46,27.2c0.3-0.4,0.2-0.9-0.2-1.2c-0.1-0.1-0.3-0.2-0.5-0.2H34.6C34.3,25.8,34.1,26,33.9,26.2z"/>
		<path id="k-gauche" class="st-kresus-blanc-1" d="M4.6,13.5h10c0.3,0,0.6,0.3,0.6,0.6v61.2c0,0.3-0.3,0.6-0.6,0.6h-10c-0.3,0-0.6-0.3-0.6-0.6
			V14.1C4,13.7,4.3,13.5,4.6,13.5z"/>
		<path id="k-bas" class="st-kresus-blanc-1" d="M32.8,54.9H22c-0.5,0-0.9,0.4-0.9,0.9c0,0.2,0.1,0.4,0.2,0.5l13.5,18.9c0.2,0.2,0.4,0.4,0.7,0.4
			h12.2c0.5,0,0.9-0.4,0.9-0.9c0-0.2-0.1-0.4-0.2-0.5l-15-18.9C33.3,55,33,54.8,32.8,54.9z"/>
	</g>
</g>
</svg>
